<?xml version="1.0" encoding="utf-8"?>
<!-- Generator: Adobe Illustrator 28.0.0, SVG Export Plug-In . SVG Version: 6.00 Build 0)  -->
<svg class = "logo" version="1.1" xmlns="http://www.w3.org/2000/svg" xmlns:xlink="http://www.w3.org/1999/xlink" x="0px" y="0px"
	 viewBox="0 0 595.3 841.9" style="enable-background:new 0 0 595.3 841.9;" xml:space="preserve">
<style type="text/css">
	.st0{fill:#4A9CD6;}
	.st1{fill:#192150;}
	.st2{fill:#2B4CA0;}
	.st3{fill:#1D2856;}
	.st4{fill:#261616;}
</style>
<g id="Layer_2">
	<circle class="st0" cx="291.9" cy="415.1" r="262.3"/>
</g>
<g id="Layer_1">
	<path class="st0" d="M265.7,170.3c21,0,42,0,63.6,0.4c5,1.2,9.5,2,14,2.9c28.3,5.6,55.2,14.7,80.5,28.9
		c27.8,15.6,51.6,35.8,72,59.9c14.8,17.5,26.9,36.9,36.2,58c9,20.3,15.6,41.2,18.8,63.1c0.4,3,1.9,5.9,2.8,8.8
		c0,9.3,0,18.5-0.3,28.1c-2.1-1.4-4-3-5.8-4.7c-40.1-39.7-80.2-79.5-120.4-119.2c-2-2-4.3-3.5-6.8-5.4c-0.6-0.1-1-0.1-1.2,0.1
		c-15.4,8.8-30.9,17.6-46.2,26.6c-1.3,0.8-2.3,3.2-2.3,4.9c-0.2,7.9,0,15.8-0.1,23.8c-0.1,11.1,1.6,9.7-10.2,10
		c-4.4,0.1-8.7,0.9-13.4,1.3c-1.8-1.4-3.4-2.6-4.8-4c-10-9.9-20-19.8-30-29.6c-1.7-1.7-4-2.7-6.3-4.3c-8.9-14.4-21-24.9-36.7-30.4
		c-34.1-11.9-68.7-12.7-102.6,0.1c-33.7,12.8-50.9,46-42.7,79.8c4.3,17.7,15,31,30,41.5c1,1.7,1.7,3.3,2.8,4.4
		c28.8,28.5,57.7,57,86.1,85.7c-10.3,0.8-20.2,1.5-30.3,1.9c-14.7-14.7-29.1-29.1-43.7-43.5c-1.2-1.2-3.1-1.8-4.8-3
		c-2.4-0.7-4.7-1.6-7-1.4c-13.1,1.1-26.1,2.6-39.2,3.6c-4.5,0.3-5.4,2-4.7,6.2c4.1,25.6,14.5,47.7,35.6,64.3c0.5,0.4,0.8,0.7,1,1
		c-0.1,0,0-0.1,0.2,0.1c0.4,0.4,0.7,0.7,0.9,0.8c-0.1-0.1,0-0.2,0.1,0.1c1.8,2.4,3.3,4.5,5.1,6.4c45.1,44.8,90.3,89.5,135.4,134.3
		c1.9,1.9,3.5,3.9,5.3,5.9c-10,0-20,0-30.6-0.4c-3.5-1.1-6.5-2.1-9.5-2.5c-29.9-4.4-57.8-14.3-84.2-28.9
		c-31-17.2-57.1-39.9-78.8-67.8c-26-33.5-42.3-71.2-49.1-113c-0.5-3.2-1.9-6.2-2.8-9.3c0-20.8,0-41.6,0.4-63
		c0.8-1.6,1.4-2.6,1.6-3.6c3.2-25.4,10.6-49.5,21.4-72.6c15.6-33.1,37.7-61.4,65.7-85.3c15-12.8,31.2-23.9,48.8-32.9
		c26.2-13.4,53.8-22.3,83.1-26C263.7,172,264.7,170.9,265.7,170.3z"/>
	<path class="st1" d="M420.7,287.4c2.2,1.8,4.5,3.4,6.5,5.3c40.2,40.1,80.3,80.2,120.4,120.3c1.8,1.8,3.7,3.4,5.8,5.2
		c0.3,11.5,0.3,22.9,0,34.9c-0.8,2.2-1.5,3.7-1.7,5.3c-3.7,25.8-11.1,50.4-22.3,73.8c-17,35.4-41.1,65.3-71.7,89.8
		c-35.1,28.1-74.8,45.7-119.2,52.7c-3,0.5-5.8,1.8-8.8,2.7c-10.7,0-21.4,0-32.5,0c-2.2-2-3.9-4.1-5.8-5.9
		c-45.2-45.2-90.3-90.3-135.5-135.5c-1.9-1.9-3.4-4.1-4.8-6.4c17.1,10.5,35.9,15.1,55.6,16.3c23.3,1.4,46.4,0.4,68.3-8.6
		c31.1-12.8,47.7-36.6,48.9-70.1c1.2-33.5-13.4-58.6-44.6-71.7c-17.2-7.2-35.7-11.4-53.6-17c-12.5-3.9-25.1-7.7-37.5-12
		c-3.5-1.2-6.9-3.5-9.6-6.1c-9.7-8.9-8.6-23.6,2.3-31c14.9-10,31.6-10.2,48.6-8.1c17.6,2.1,28.3,12.1,32.9,29
		c0.3,1.3,0.9,2.6,0.9,3.9c0.2,3.1,1.9,3.7,4.7,3.6c5.5-0.3,11-0.4,16.5-0.6c10.6-0.5,21.2-1,32.2-1.6c-0.5-14.3-3.8-27.2-10.6-39.1
		c2,1.4,4.3,2.4,6.1,4.1c10.1,9.9,20,20,30,29.9c1.4,1.4,3,2.6,4.9,4.4c0.4,12.8,0.4,25.1,0.4,37.8c6.5,0,12.2,0.2,17.8-0.1
		c4.2-0.2,5.4,1.2,5.3,5.4c-0.2,25.3-0.2,50.7,0,76c0.1,11.3,0.3,22.7,1.2,33.9c1.4,15.9,8.1,28.4,24.3,34c20.3,7,40.4,4.6,60.1-2.5
		c1.1-0.4,2.3-2.4,2.2-3.6c-1.1-11.7-2.6-23.5-3.9-35.5c-5.7,1.4-10.9,3.1-16.3,3.9c-10.8,1.7-16.6-3.1-17.3-13.8
		c-0.1-2.2-0.2-4.3-0.2-6.5c0-28.7-0.1-57.3-0.1-86c0-1.6,0.2-3.2,0.4-5.3c11.3,0,22.2,0,33.3,0c0-13.4,0-26.3,0-39.7
		c-11.3,0-22.3,0-33.6,0C420.7,330.6,420.7,309,420.7,287.4z"/>
	<path class="st2" d="M305.8,316.2c7,12.1,10.3,25,10.9,39.3c-11,0.5-21.6,1.1-32.2,1.6c-5.5,0.3-11,0.3-16.5,0.6
		c-2.8,0.2-4.5-0.5-4.7-3.6c-0.1-1.3-0.6-2.6-0.9-3.9c-4.5-16.9-15.3-26.9-32.9-29c-17-2-33.7-1.8-48.6,8.1c-11,7.3-12.1,22-2.3,31
		c2.8,2.5,6.1,4.9,9.6,6.1c12.4,4.3,25,8.1,37.5,12c17.9,5.6,36.4,9.8,53.6,17c31.2,13.1,45.8,38.2,44.6,71.7
		c-1.2,33.5-17.7,57.3-48.9,70.1c-21.9,9-45,10-68.3,8.6c-19.7-1.2-38.5-5.8-55.7-16.6c-0.4-0.1-0.5,0.1-0.4-0.1
		c-0.3-0.4-0.6-0.6-1-0.7c0,0,0,0.1-0.1-0.2c-0.4-0.4-0.8-0.6-1.1-0.8c-20.9-16.6-31.3-38.9-35.4-64.8c-0.7-4.3,0.2-5.9,4.7-6.3
		c13.1-1,26.1-2.5,39.2-3.6c2.2-0.2,4.5,0.7,7,1.8c1.5,5.1,2.4,9.5,3.9,13.7c7.5,20.4,24.5,32.9,44.7,33.1
		c9.9-0.7,19.8-1.3,30.5-2.2c4.9-2.2,9.7-3.5,13.1-6.4c4.6-3.9,9.2-8.4,12.1-13.7c8-14.8,2.5-30.2-13.9-36.8
		c-13.7-5.4-28.2-9-42.4-12.8c-20.1-5.4-40.3-10.5-58.3-21.6c-14.9-10.3-25.6-23.7-29.9-41.6c-8.2-34.2,9-67.7,42.7-80.6
		c33.9-13,68.5-12.2,102.6-0.1C284.9,291,296.9,301.7,305.8,316.2z"/>
	<path class="st2" d="M420.4,287.3c0.3,21.7,0.3,43.4,0.3,65.6c11.3,0,22.2,0,33.6,0c0,13.4,0,26.3,0,39.7c-11.1,0-22,0-33.3,0
		c-0.1,2.1-0.4,3.7-0.4,5.3c0,28.7,0,57.3,0.1,86c0,2.2,0.1,4.3,0.2,6.5c0.7,10.7,6.5,15.5,17.3,13.8c5.4-0.8,10.6-2.5,16.3-3.9
		c1.4,12,2.8,23.8,3.9,35.5c0.1,1.2-1.2,3.2-2.2,3.6c-19.8,7.1-39.8,9.5-60.1,2.5c-16.1-5.6-22.9-18.1-24.3-34
		c-1-11.3-1.2-22.6-1.2-33.9c-0.2-25.3-0.1-50.7,0-76c0-4.1-1.1-5.6-5.3-5.4c-5.6,0.3-11.3,0.1-17.8,0.1c0-12.7,0-25-0.1-37.7
		c4.3-0.9,8.6-1.7,13-1.8c11.8-0.3,10.1,1.1,10.2-10.1c0.1-8-0.1-16,0.1-24c0.1-1.7,1-4.1,2.3-4.9c15.3-9.1,30.8-18,46.2-26.9
		C419.5,287.2,419.8,287.2,420.4,287.3z"/>
	<path class="st3" d="M153.8,408.2c17.9,10.8,38.1,15.8,58.2,21.2c14.3,3.8,28.8,7.4,42.4,12.8c16.4,6.5,21.9,21.9,13.9,36.8
		c-2.8,5.2-7.4,9.8-12.1,13.7c-3.4,2.9-8.2,4.1-12.8,6.2c-29.2-28.7-58.1-57.4-86.9-86.2C155.4,411.5,154.8,409.9,153.8,408.2z"/>
	<path class="st3" d="M212.4,501c-20,0-37-12.5-44.5-32.8c-1.5-4.2-2.5-8.6-3.8-13.3c1.5,0.5,3.3,1.1,4.6,2.3
		C183.3,471.6,197.7,486.2,212.4,501z"/>
	<path class="st4" d="M148.7,527.5c0.1,0.1,0.4,0.3,0.9,0.7C149.5,528.2,149.2,527.9,148.7,527.5z"/>
	<path class="st4" d="M149.8,528.5c0.1,0,0.5,0.2,0.9,0.6C150.5,529.2,150.3,528.9,149.8,528.5z"/>
</g>
</svg>